<svg width="200" height="175" viewBox="0 0 200 175" fill="none" xmlns="http://www.w3.org/2000/svg">
<g filter="url(#filter0_d_23_3196)">
<path d="M64.7964 48.5854L64.9043 51.5834L64.7964 48.5854ZM59.8139 49.375L58.7605 46.566L59.8139 49.375ZM79.6339 118.892L81.7916 116.808L80.127 115.084L78.0784 116.327L79.6339 118.892ZM87.2534 83.2796L84.7874 84.988L86.2974 87.1676L88.646 85.9367L87.2534 83.2796ZM146.689 85.0001L145.145 87.5726L146.689 85.0001ZM156.787 98.9766L153.857 99.6213L154.204 101.197L155.709 101.776L156.787 98.9766ZM166.764 102.817L167.842 100.017L167.842 100.017L166.764 102.817ZM166.764 104.683L167.842 107.483L167.842 107.483L166.764 104.683ZM156.787 108.524L155.709 105.724L154.204 106.303L153.857 107.879L156.787 108.524ZM146.689 122.5L145.145 119.928V119.928L146.689 122.5ZM142.056 125.014L140.741 122.317L136.961 124.161L139.935 127.135L142.056 125.014ZM147.266 130.224L145.145 132.345L145.334 132.534L145.554 132.687L147.266 130.224ZM158.759 138.214L160.471 135.751L158.759 138.214ZM159.134 140.302L161.597 142.014V142.014L159.134 140.302ZM157.046 140.677L155.333 143.14L155.333 143.14L157.046 140.677ZM145.444 132.61L147.156 130.147V130.147L145.444 132.61ZM145.334 132.534L143.213 134.655L143.402 134.844L143.621 134.997L145.334 132.534ZM139.141 126.342L141.263 124.22L139.833 122.79L137.97 123.58L139.141 126.342ZM133.01 128.561L132.142 125.689L128.176 126.887L130.552 130.281L133.01 128.561ZM136.887 134.098L134.43 135.819L134.583 136.038L134.773 136.226L136.887 134.098ZM146.817 143.962L148.932 141.834L148.932 141.834L146.817 143.962ZM146.824 146.084L148.953 148.198L148.953 148.198L146.824 146.084ZM144.703 146.091L142.589 148.219L144.703 146.091ZM134.678 136.132L132.564 138.26L132.564 138.26L134.678 136.132ZM134.583 136.038L132.125 137.758L132.279 137.978L132.469 138.166L134.583 136.038ZM134.506 135.928L132.049 137.649L134.506 135.928ZM129.936 129.402L132.394 127.681L131.216 125.998L129.221 126.488L129.936 129.402ZM124.402 130.492L123.96 127.524L120.194 128.086L121.621 131.615L124.402 130.492ZM126.871 136.603L124.09 137.727L124.19 137.975L124.332 138.201L126.871 136.603ZM134.328 148.448L131.789 150.047L131.789 150.047L134.328 148.448ZM133.858 150.517L132.259 147.978H132.259L133.858 150.517ZM131.789 150.047L129.25 151.645L129.25 151.645L131.789 150.047ZM124.261 138.088L126.8 136.49L126.8 136.49L124.261 138.088ZM124.19 137.975L121.408 139.098L121.509 139.346L121.651 139.573L124.19 137.975ZM124.14 137.851L121.358 138.974L121.358 138.974L124.14 137.851ZM121.32 130.871L124.101 129.747L123.261 127.668L121.03 127.885L121.32 130.871ZM111.991 131.058L112.161 128.063L108.378 127.848L109.036 131.579L111.991 131.058ZM113.078 137.226L110.124 137.747L110.17 138.01L110.263 138.261L113.078 137.226ZM117.909 150.363L120.725 149.328L120.725 149.328L117.909 150.363ZM117.019 152.289L118.054 155.104L118.054 155.104L117.019 152.289ZM115.093 151.398L117.909 150.363L117.909 150.363L115.093 151.398ZM110.216 138.136L107.401 139.171L107.401 139.171L110.216 138.136ZM110.17 138.01L107.216 138.531L107.262 138.795L107.355 139.046L110.17 138.01ZM110.147 137.879L107.193 138.399V138.4L110.147 137.879ZM108.899 130.803L111.854 130.282L111.463 128.063L109.222 127.821L108.899 130.803ZM101.231 129.472L101.933 126.555L98.5464 125.741L98.2428 129.211L101.231 129.472ZM100.657 136.038L97.6684 135.776L97.6451 136.043L97.6693 136.309L100.657 136.038ZM101.923 149.978L98.9355 150.249V150.249L101.923 149.978ZM100.565 151.607L100.836 154.595H100.837L100.565 151.607ZM98.9355 150.249L95.9478 150.52L98.9355 150.249ZM97.6572 136.176L100.645 135.905L100.645 135.905L97.6572 136.176ZM97.6451 136.043L94.6565 135.781L94.6332 136.048L94.6574 136.314L97.6451 136.043ZM97.6568 135.91L100.645 136.171L100.645 136.171L97.6568 135.91ZM98.2887 128.686L101.277 128.948L101.491 126.501L99.1357 125.808L98.2887 128.686ZM92.7415 126.757L93.8629 123.975L91.4462 123.001L90.1434 125.257L92.7415 126.757ZM88.7589 133.655L86.1608 132.155L86.0271 132.387L85.9364 132.639L88.7589 133.655ZM84.0153 146.824L81.1928 145.807L81.1928 145.807L84.0153 146.824ZM81.1928 145.807L84.0153 146.824L81.1928 145.807ZM85.9818 132.513L88.8042 133.529L88.8042 133.529L85.9818 132.513ZM86.0271 132.387L83.429 130.887L83.2953 131.118L83.2046 131.37L86.0271 132.387ZM86.094 132.271L88.692 133.771L88.692 133.771L86.094 132.271ZM89.9693 125.559L92.5674 127.059L94.21 124.214L91.2278 122.836L89.9693 125.559ZM84.189 122.5L82.6455 125.073L82.6455 125.073L84.189 122.5ZM31.259 63.9595L28.5757 62.6178L28.5757 62.6178L31.259 63.9595ZM30.6673 65.1535L33.3578 66.4805L33.3578 66.4805L30.6673 65.1535ZM26.259 53.9595L27.2077 56.8055L26.259 53.9595ZM18.134 62.0845L15.1471 61.8044L18.134 62.0845ZM64.9043 51.5834C65.5145 51.5614 66.2741 51.537 66.9852 51.4401C67.7029 51.3422 68.6172 51.1431 69.4927 50.6264C71.5921 49.3873 72.1889 47.1883 72.1889 45H66.1889C66.1889 45.6269 66.1022 45.8315 66.1085 45.8166C66.1171 45.7964 66.1506 45.728 66.2241 45.6438C66.2984 45.5586 66.3789 45.4971 66.4431 45.4592C66.5456 45.3987 66.5243 45.4474 66.1746 45.4951C65.8182 45.5437 65.3786 45.5624 64.6884 45.5873L64.9043 51.5834ZM60.8673 52.184C62.1541 51.7014 63.4145 51.637 64.9043 51.5834L64.6884 45.5873C63.252 45.639 61.0741 45.6984 58.7605 46.566L60.8673 52.184ZM47.4389 43.125C47.4389 46.1043 49.0924 48.9624 51.4222 50.7548C53.8491 52.6218 57.2694 53.5332 60.8673 52.184L58.7605 46.566C57.3584 47.0918 56.0912 46.7766 55.0807 45.9992C53.9729 45.147 53.4389 43.9426 53.4389 43.125H47.4389ZM58.5639 33.25C55.7767 33.25 53.0767 34.2744 51.0431 35.9461C49.0088 37.6183 47.4389 40.1275 47.4389 43.125H53.4389C53.4389 42.3256 53.8604 41.3972 54.8532 40.5811C55.8465 39.7646 57.209 39.25 58.5639 39.25V33.25ZM72.1889 45C72.1889 41.0041 69.7651 38.0153 67.1663 36.1705C64.5801 34.3346 61.3267 33.25 58.5639 33.25V39.25C59.9432 39.25 62.0023 39.8628 63.6931 41.063C65.3713 42.2544 66.1889 43.6406 66.1889 45H72.1889ZM66.6891 125.5C71.9913 125.5 76.9579 124.023 81.1895 121.457L78.0784 116.327C74.7582 118.34 70.8637 119.5 66.6891 119.5V125.5ZM38.6891 97.5C38.6891 112.964 51.2251 125.5 66.6891 125.5V119.5C54.5388 119.5 44.6891 109.65 44.6891 97.5H38.6891ZM66.6891 69.5C51.2251 69.5 38.6891 82.036 38.6891 97.5H44.6891C44.6891 85.3497 54.5388 75.5 66.6891 75.5V69.5ZM89.7194 81.5711C84.6703 74.2833 76.2386 69.5 66.6891 69.5V75.5C74.1876 75.5 80.8111 79.2488 84.7874 84.988L89.7194 81.5711ZM148.232 82.4276C129.106 70.9516 105.462 70.3499 85.8608 80.6224L88.646 85.9367C106.401 76.6317 127.82 77.177 145.145 87.5726L148.232 82.4276ZM159.717 98.3319C158.331 92.0321 154.49 86.182 148.232 82.4276L145.145 87.5726C149.916 90.4349 152.807 94.85 153.857 99.6213L159.717 98.3319ZM167.842 100.017L157.865 96.1768L155.709 101.776L165.687 105.617L167.842 100.017ZM167.842 107.483C171.259 106.168 171.259 101.332 167.842 100.017L165.687 105.617C163.978 104.959 163.978 102.541 165.687 101.884L167.842 107.483ZM157.865 111.323L167.842 107.483L165.687 101.884L155.709 105.724L157.865 111.323ZM148.232 125.073C154.49 121.318 158.331 115.468 159.717 109.168L153.857 107.879C152.807 112.65 149.916 117.065 145.145 119.928L148.232 125.073ZM143.372 127.71C145.02 126.906 146.642 126.027 148.232 125.073L145.145 119.928C143.704 120.792 142.234 121.589 140.741 122.317L143.372 127.71ZM149.387 128.102L144.178 122.892L139.935 127.135L145.145 132.345L149.387 128.102ZM160.471 135.751L148.979 127.76L145.554 132.687L157.046 140.677L160.471 135.751ZM161.597 142.014C163.016 139.974 162.512 137.169 160.471 135.751L157.046 140.677C156.366 140.204 156.198 139.269 156.671 138.589L161.597 142.014ZM155.333 143.14C157.374 144.559 160.178 144.055 161.597 142.014L156.671 138.589C157.144 137.909 158.078 137.741 158.758 138.214L155.333 143.14ZM143.731 135.073L155.333 143.14L158.759 138.214L147.156 130.147L143.731 135.073ZM143.621 134.997L143.731 135.073L147.156 130.147L147.046 130.071L143.621 134.997ZM143.118 134.561L143.213 134.655L147.455 130.413L147.361 130.318L143.118 134.561ZM137.02 128.463L143.118 134.561L147.361 130.318L141.263 124.22L137.02 128.463ZM133.878 131.432C136.053 130.775 138.201 129.999 140.313 129.104L137.97 123.58C136.058 124.39 134.112 125.094 132.142 125.689L133.878 131.432ZM139.344 132.377L135.467 126.84L130.552 130.281L134.43 135.819L139.344 132.377ZM148.932 141.834L139.001 131.969L134.773 136.226L144.703 146.091L148.932 141.834ZM148.953 148.198C150.704 146.435 150.695 143.586 148.932 141.834L144.703 146.091C144.115 145.507 144.112 144.557 144.696 143.969L148.953 148.198ZM142.589 148.219C144.352 149.971 147.201 149.961 148.953 148.198L144.696 143.969C145.28 143.382 146.23 143.379 146.817 143.962L142.589 148.219ZM132.564 138.26L142.589 148.219L146.817 143.962L136.792 134.004L132.564 138.26ZM132.469 138.166L132.564 138.26L136.792 134.004L136.697 133.909L132.469 138.166ZM132.049 137.649L132.125 137.758L137.04 134.317L136.964 134.207L132.049 137.649ZM127.479 131.123L132.049 137.649L136.964 134.207L132.394 127.681L127.479 131.123ZM124.844 133.459C126.793 133.168 128.731 132.787 130.652 132.315L129.221 126.488C127.481 126.916 125.725 127.261 123.96 127.524L124.844 133.459ZM129.653 135.479L127.184 129.368L121.621 131.615L124.09 137.727L129.653 135.479ZM136.867 146.85L129.41 135.005L124.332 138.201L131.789 150.047L136.867 146.85ZM135.456 153.056C137.559 151.732 138.191 148.953 136.867 146.85L131.789 150.047C131.348 149.345 131.558 148.419 132.259 147.978L135.456 153.056ZM129.25 151.645C130.574 153.748 133.353 154.38 135.456 153.056L132.259 147.978C132.961 147.537 133.887 147.747 134.328 148.448L129.25 151.645ZM121.722 139.686L129.25 151.645L134.328 148.448L126.8 136.49L121.722 139.686ZM121.651 139.573L121.722 139.686L126.8 136.49L126.729 136.376L121.651 139.573ZM121.358 138.974L121.408 139.098L126.971 136.851L126.921 136.727L121.358 138.974ZM118.538 131.995L121.358 138.974L126.921 136.727L124.101 129.747L118.538 131.995ZM111.821 134.053C115.083 134.238 118.356 134.173 121.61 133.857L121.03 127.885C118.081 128.171 115.116 128.231 112.161 128.063L111.821 134.053ZM116.033 136.705L114.945 130.537L109.036 131.579L110.124 137.747L116.033 136.705ZM120.725 149.328L115.894 136.19L110.263 138.261L115.093 151.398L120.725 149.328ZM118.054 155.104C120.387 154.246 121.583 151.66 120.725 149.328L115.093 151.398C114.808 150.621 115.206 149.759 115.984 149.473L118.054 155.104ZM112.278 152.434C113.136 154.766 115.722 155.962 118.054 155.104L115.984 149.473C116.761 149.187 117.623 149.585 117.909 150.363L112.278 152.434ZM107.401 139.171L112.278 152.434L117.909 150.363L113.032 137.1L107.401 139.171ZM107.355 139.046L107.401 139.171L113.032 137.1L112.986 136.975L107.355 139.046ZM107.193 138.4L107.216 138.531L113.125 137.489L113.101 137.358L107.193 138.4ZM105.945 131.324L107.193 138.399L113.101 137.358L111.854 130.282L105.945 131.324ZM100.53 132.389C103.186 133.028 105.874 133.493 108.577 133.786L109.222 127.821C106.774 127.556 104.339 127.134 101.933 126.555L100.53 132.389ZM103.646 136.299L104.22 129.734L98.2428 129.211L97.6684 135.776L103.646 136.299ZM104.911 149.706L103.645 135.766L97.6693 136.309L98.9355 150.249L104.911 149.706ZM100.837 154.595C103.312 154.37 105.136 152.181 104.911 149.706L98.9355 150.249C98.8606 149.424 99.4687 148.694 100.294 148.619L100.837 154.595ZM95.9478 150.52C96.1727 152.995 98.3614 154.82 100.836 154.595L100.294 148.619C101.119 148.545 101.848 149.153 101.923 149.978L95.9478 150.52ZM94.6695 136.447L95.9478 150.52L101.923 149.978L100.645 135.905L94.6695 136.447ZM94.6574 136.314L94.6695 136.447L100.645 135.905L100.633 135.771L94.6574 136.314ZM94.6682 135.648L94.6565 135.781L100.634 136.304L100.645 136.171L94.6682 135.648ZM95.3002 128.425L94.6682 135.648L100.645 136.171L101.277 128.948L95.3002 128.425ZM91.6201 129.54C93.5344 130.311 95.4774 130.986 97.4418 131.564L99.1357 125.808C97.3565 125.285 95.5967 124.673 93.8629 123.975L91.6201 129.54ZM91.357 135.155L95.3396 128.257L90.1434 125.257L86.1608 132.155L91.357 135.155ZM86.8377 147.841L91.5814 134.672L85.9364 132.639L81.1928 145.807L86.8377 147.841ZM81.079 150.549C83.4172 151.392 85.9955 150.179 86.8377 147.841L81.1928 145.807C81.4736 145.028 82.333 144.624 83.1124 144.905L81.079 150.549ZM78.3703 144.791C77.5281 147.129 78.7408 149.707 81.079 150.549L83.1124 144.905C83.8918 145.185 84.296 146.045 84.0153 146.824L78.3703 144.791ZM83.1593 131.496L78.3703 144.791L84.0153 146.824L88.8042 133.529L83.1593 131.496ZM83.2046 131.37L83.1593 131.496L88.8042 133.529L88.8496 133.404L83.2046 131.37ZM83.4959 130.771L83.429 130.887L88.6251 133.887L88.692 133.771L83.4959 130.771ZM87.3712 124.059L83.4959 130.771L88.692 133.771L92.5674 127.059L87.3712 124.059ZM82.6455 125.073C84.6219 126.258 86.6468 127.328 88.7108 128.282L91.2278 122.836C89.3582 121.972 87.5236 121.002 85.7325 119.928L82.6455 125.073ZM77.4762 120.976C78.9662 122.519 80.6911 123.9 82.6455 125.073L85.7325 119.928C84.2274 119.025 82.9157 117.971 81.7916 116.808L77.4762 120.976ZM28.5757 62.6178C28.3639 63.0415 28.1641 63.4466 27.9767 63.8265L33.3578 66.4805C33.5461 66.0988 33.7388 65.7079 33.9423 65.3011L28.5757 62.6178ZM27.2077 56.8055C27.4963 56.7093 27.6443 56.7511 27.7906 56.8316C28.0035 56.9488 28.344 57.2518 28.647 57.8656C29.2673 59.122 29.3858 60.9977 28.5757 62.6178L33.9423 65.3011C35.6322 61.9213 35.4382 58.0678 34.0272 55.2096C33.3145 53.7661 32.2098 52.4154 30.6844 51.5756C29.0924 50.6991 27.2091 50.4805 25.3103 51.1134L27.2077 56.8055ZM21.1209 62.3646C21.2636 60.8427 21.8369 59.8707 22.7139 59.0886C23.6908 58.2174 25.1568 57.4892 27.2077 56.8055L25.3103 51.1134C22.9862 51.8881 20.6046 52.9302 18.7203 54.6107C16.736 56.3804 15.4343 58.7418 15.1471 61.8044L21.1209 62.3646ZM23.759 68.4595C23.0746 68.4595 22.4465 68.1459 21.8803 67.0819C21.2722 65.939 20.9478 64.2104 21.1209 62.3646L15.1471 61.8044C14.8902 64.5431 15.3073 67.502 16.5836 69.9004C17.9018 72.3778 20.3012 74.4595 23.759 74.4595V68.4595ZM27.9767 63.8265C26.8615 66.0876 26.291 67.1752 25.6794 67.8225C25.3393 68.1825 24.9676 68.4595 23.759 68.4595V74.4595C26.3484 74.4595 28.3942 73.6855 30.0404 71.9434C31.415 70.4887 32.3996 68.4233 33.3578 66.4805L27.9767 63.8265Z" fill="white"/>
</g>
<g filter="url(#filter1_ii_23_3196)">
<path d="M83.1587 56.4658L94.4292 83.3623C95.182 85.1586 96.7964 86.4489 98.7145 86.7871C100.633 87.1253 102.591 86.465 103.913 85.0344L123.703 63.6147C131.515 55.1593 132.377 42.4021 125.774 32.9722C118.022 21.9013 102.763 19.2107 91.6924 26.9626C82.2624 33.5656 78.7096 45.8483 83.1587 56.4658Z" fill="#E1E1E1"/>
</g>
<g filter="url(#filter2_ii_23_3196)">
<path d="M112.027 50.3061L110.875 79.4457C110.798 81.3919 111.716 83.2436 113.311 84.3607C114.906 85.4779 116.96 85.7071 118.763 84.9691L145.751 73.9198C156.405 69.5581 162.578 58.3607 160.579 47.0237C158.232 33.714 145.54 24.8268 132.23 27.1736C120.893 29.1727 112.482 38.8032 112.027 50.3061Z" fill="#E1E1E1"/>
</g>
<path d="M49.8141 83.75C49.8141 83.75 46.0641 76.875 41.0641 71.25C36.0641 65.625 25.4391 65 25.4391 65" stroke="black" stroke-width="1.5"/>
<path d="M72.9391 75.6249C72.9391 75.6249 72.9391 64.9999 70.4391 58.1249C67.9391 51.2499 62.9391 43.7499 62.9391 43.7499" stroke="black" stroke-width="1.5"/>
<path d="M82.6042 146.316L87.3931 133.021L94.1891 121.25" stroke="black" stroke-width="3" stroke-linecap="round"/>
<path d="M100.429 150.113L99.1511 136.04L100.336 122.5" stroke="black" stroke-width="3" stroke-linecap="round"/>
<path d="M116.501 150.881L111.624 137.618L109.264 124.232" stroke="black" stroke-width="3" stroke-linecap="round"/>
<path d="M133.059 149.247L125.531 137.289L120.439 124.686" stroke="black" stroke-width="3" stroke-linecap="round"/>
<path d="M145.76 145.027L135.735 135.068L127.939 123.934" stroke="black" stroke-width="3" stroke-linecap="round"/>
<path d="M157.902 139.445L146.3 131.379L136.689 121.768" stroke="black" stroke-width="3" stroke-linecap="round"/>
<g filter="url(#filter3_ii_23_3196)">
<path d="M84.1891 122.5C103.424 134.041 127.454 134.041 146.689 122.5C160.844 114.007 160.844 93.4929 146.689 85C127.454 73.459 103.424 73.459 84.1891 85C70.0343 93.4929 70.0343 114.007 84.1891 122.5Z" fill="#FFCB0C"/>
<mask id="mask0_23_3196" style="mask-type:alpha" maskUnits="userSpaceOnUse" x="73" y="76" width="85" height="56">
<path d="M84.1891 122.5C103.424 134.041 127.454 134.041 146.689 122.5C160.844 114.007 160.844 93.4929 146.689 85C127.454 73.459 103.424 73.459 84.1891 85C70.0343 93.4929 70.0343 114.007 84.1891 122.5Z" fill="#DC1E00"/>
</mask>
<g mask="url(#mask0_23_3196)">
<mask id="path-14-inside-1_23_3196" fill="white">
<path d="M77.939 135H90.439V72.5H77.939V135Z"/>
</mask>
<path d="M90.439 135V155H110.439V135H90.439ZM77.939 135H57.939V155H77.939V135ZM77.939 72.5V52.5H57.939V72.5H77.939ZM90.439 72.5H110.439V52.5H90.439V72.5ZM90.439 115H77.939V155H90.439V115ZM97.939 135V72.5H57.939V135H97.939ZM77.939 92.5H90.439V52.5H77.939V92.5ZM70.439 72.5V135H110.439V72.5H70.439Z" fill="black" mask="url(#path-14-inside-1_23_3196)"/>
<mask id="path-16-inside-2_23_3196" fill="white">
<path d="M102.939 135H115.439V72.5H102.939V135Z"/>
</mask>
<path d="M115.439 135V155H135.439V135H115.439ZM102.939 135H82.9391V155H102.939V135ZM102.939 72.5V52.5H82.9391V72.5H102.939ZM115.439 72.5H135.439V52.5H115.439V72.5ZM115.439 115H102.939V155H115.439V115ZM122.939 135V72.5H82.9391V135H122.939ZM102.939 92.5H115.439V52.5H102.939V92.5ZM95.4391 72.5V135H135.439V72.5H95.4391Z" fill="black" mask="url(#path-16-inside-2_23_3196)"/>
<mask id="path-18-inside-3_23_3196" fill="white">
<path d="M127.939 135H140.439V72.5H127.939V135Z"/>
</mask>
<path d="M140.439 135V155H160.439V135H140.439ZM127.939 135H107.939V155H127.939V135ZM127.939 72.5V52.5H107.939V72.5H127.939ZM140.439 72.5H160.439V52.5H140.439V72.5ZM140.439 115H127.939V155H140.439V115ZM147.939 135V72.5H107.939V135H147.939ZM127.939 92.5H140.439V52.5H127.939V92.5ZM120.439 72.5V135H160.439V72.5H120.439Z" fill="black" mask="url(#path-18-inside-3_23_3196)"/>
<mask id="path-20-inside-4_23_3196" fill="white">
<path d="M152.939 135H165.439V72.5H152.939V135Z"/>
</mask>
<path d="M165.439 135V155H185.439V135H165.439ZM152.939 135H132.939V155H152.939V135ZM152.939 72.5V52.5H132.939V72.5H152.939ZM165.439 72.5H185.439V52.5H165.439V72.5ZM165.439 115H152.939V155H165.439V115ZM172.939 135V72.5H132.939V135H172.939ZM152.939 92.5H165.439V52.5H152.939V92.5ZM145.439 72.5V135H185.439V72.5H145.439Z" fill="black" mask="url(#path-20-inside-4_23_3196)"/>
</g>
<path d="M166.764 102.817C167.619 103.146 167.619 104.354 166.764 104.683L156.486 108.639C155.831 108.892 155.126 108.408 155.126 107.706V99.7938C155.126 99.0919 155.831 98.6084 156.486 98.8605L166.764 102.817Z" fill="black"/>
</g>
<path fill-rule="evenodd" clip-rule="evenodd" d="M158.986 99.8228C159.412 102.421 159.412 105.079 158.986 107.677L156.787 108.524C157.478 105.384 157.478 102.116 156.787 98.9766L158.986 99.8228Z" fill="white"/>
<g filter="url(#filter4_ii_23_3196)">
<circle cx="66.6891" cy="97.5" r="25" fill="#FFCB0C"/>
</g>
<path d="M64.1433 101.743C64.1433 101.743 65.7459 99.9493 66.738 100.001C67.7302 100.053 69.1365 102.005 69.1365 102.005" stroke="black" stroke-linecap="round" stroke-linejoin="round"/>
<path d="M61.7451 108.49C61.7451 108.49 64.1436 110.493 66.6401 110.624C69.1367 110.754 71.7314 109.013 71.7314 109.013" stroke="black" stroke-linecap="round" stroke-linejoin="round"/>
<circle cx="57.3141" cy="91.875" r="4.375" fill="black"/>
<g filter="url(#filter5_i_23_3196)">
<circle cx="57.314" cy="91.875" r="2.5" fill="white"/>
</g>
<circle cx="77.3141" cy="93.1249" r="4.375" fill="black"/>
<g filter="url(#filter6_i_23_3196)">
<circle cx="77.314" cy="93.1249" r="2.5" fill="white"/>
</g>
<g filter="url(#filter7_ii_23_3196)">
<path d="M69.189 45C69.189 50.3553 64.814 47.5 59.814 49.375C54.814 51.25 50.439 46.922 50.439 43.125C50.439 39.328 54.4218 36.25 58.564 36.25C62.7061 36.25 69.189 39.6447 69.189 45Z" fill="#FFCB0C"/>
</g>
<g filter="url(#filter8_ii_23_3196)">
<path d="M31.2591 63.9595C28.7591 68.9595 27.9012 71.4595 23.7591 71.4595C19.617 71.4595 17.7042 66.669 18.1341 62.0845C18.564 57.5 21.8841 55.4178 26.2591 53.9595C30.6341 52.5011 33.7591 58.9595 31.2591 63.9595Z" fill="#FFCB0C"/>
</g>
<defs>
<filter id="filter0_d_23_3196" x="7.07495" y="27.25" width="171.33" height="138.132" filterUnits="userSpaceOnUse" color-interpolation-filters="sRGB">
<feFlood flood-opacity="0" result="BackgroundImageFix"/>
<feColorMatrix in="SourceAlpha" type="matrix" values="0 0 0 0 0 0 0 0 0 0 0 0 0 0 0 0 0 0 127 0" result="hardAlpha"/>
<feOffset dy="2"/>
<feGaussianBlur stdDeviation="4"/>
<feColorMatrix type="matrix" values="0 0 0 0 0 0 0 0 0 0 0 0 0 0 0 0 0 0 0.25 0"/>
<feBlend mode="normal" in2="BackgroundImageFix" result="effect1_dropShadow_23_3196"/>
<feBlend mode="normal" in="SourceGraphic" in2="effect1_dropShadow_23_3196" result="shape"/>
</filter>
<filter id="filter1_ii_23_3196" x="75.255" y="16.5349" width="60.9448" height="76.3392" filterUnits="userSpaceOnUse" color-interpolation-filters="sRGB">
<feFlood flood-opacity="0" result="BackgroundImageFix"/>
<feBlend mode="normal" in="SourceGraphic" in2="BackgroundImageFix" result="shape"/>
<feColorMatrix in="SourceAlpha" type="matrix" values="0 0 0 0 0 0 0 0 0 0 0 0 0 0 0 0 0 0 127 0" result="hardAlpha"/>
<feOffset dx="-6" dy="-6"/>
<feGaussianBlur stdDeviation="5"/>
<feComposite in2="hardAlpha" operator="arithmetic" k2="-1" k3="1"/>
<feColorMatrix type="matrix" values="0 0 0 0 0 0 0 0 0 0 0 0 0 0 0 0 0 0 0.3 0"/>
<feBlend mode="normal" in2="shape" result="effect1_innerShadow_23_3196"/>
<feColorMatrix in="SourceAlpha" type="matrix" values="0 0 0 0 0 0 0 0 0 0 0 0 0 0 0 0 0 0 127 0" result="hardAlpha"/>
<feOffset dx="6" dy="6"/>
<feGaussianBlur stdDeviation="5"/>
<feComposite in2="hardAlpha" operator="arithmetic" k2="-1" k3="1"/>
<feColorMatrix type="matrix" values="0 0 0 0 1 0 0 0 0 1 0 0 0 0 1 0 0 0 0.3 0"/>
<feBlend mode="normal" in2="effect1_innerShadow_23_3196" result="effect2_innerShadow_23_3196"/>
</filter>
<filter id="filter2_ii_23_3196" x="104.87" y="20.7977" width="62.0822" height="70.5981" filterUnits="userSpaceOnUse" color-interpolation-filters="sRGB">
<feFlood flood-opacity="0" result="BackgroundImageFix"/>
<feBlend mode="normal" in="SourceGraphic" in2="BackgroundImageFix" result="shape"/>
<feColorMatrix in="SourceAlpha" type="matrix" values="0 0 0 0 0 0 0 0 0 0 0 0 0 0 0 0 0 0 127 0" result="hardAlpha"/>
<feOffset dx="-6" dy="-6"/>
<feGaussianBlur stdDeviation="5"/>
<feComposite in2="hardAlpha" operator="arithmetic" k2="-1" k3="1"/>
<feColorMatrix type="matrix" values="0 0 0 0 0 0 0 0 0 0 0 0 0 0 0 0 0 0 0.3 0"/>
<feBlend mode="normal" in2="shape" result="effect1_innerShadow_23_3196"/>
<feColorMatrix in="SourceAlpha" type="matrix" values="0 0 0 0 0 0 0 0 0 0 0 0 0 0 0 0 0 0 127 0" result="hardAlpha"/>
<feOffset dx="6" dy="6"/>
<feGaussianBlur stdDeviation="5"/>
<feComposite in2="hardAlpha" operator="arithmetic" k2="-1" k3="1"/>
<feColorMatrix type="matrix" values="0 0 0 0 1 0 0 0 0 1 0 0 0 0 1 0 0 0 0.3 0"/>
<feBlend mode="normal" in2="effect1_innerShadow_23_3196" result="effect2_innerShadow_23_3196"/>
</filter>
<filter id="filter3_ii_23_3196" x="67.573" y="70.3442" width="105.832" height="66.8115" filterUnits="userSpaceOnUse" color-interpolation-filters="sRGB">
<feFlood flood-opacity="0" result="BackgroundImageFix"/>
<feBlend mode="normal" in="SourceGraphic" in2="BackgroundImageFix" result="shape"/>
<feColorMatrix in="SourceAlpha" type="matrix" values="0 0 0 0 0 0 0 0 0 0 0 0 0 0 0 0 0 0 127 0" result="hardAlpha"/>
<feOffset dx="-6" dy="-6"/>
<feGaussianBlur stdDeviation="5"/>
<feComposite in2="hardAlpha" operator="arithmetic" k2="-1" k3="1"/>
<feColorMatrix type="matrix" values="0 0 0 0 0 0 0 0 0 0 0 0 0 0 0 0 0 0 0.3 0"/>
<feBlend mode="normal" in2="shape" result="effect1_innerShadow_23_3196"/>
<feColorMatrix in="SourceAlpha" type="matrix" values="0 0 0 0 0 0 0 0 0 0 0 0 0 0 0 0 0 0 127 0" result="hardAlpha"/>
<feOffset dx="6" dy="6"/>
<feGaussianBlur stdDeviation="5"/>
<feComposite in2="hardAlpha" operator="arithmetic" k2="-1" k3="1"/>
<feColorMatrix type="matrix" values="0 0 0 0 1 0 0 0 0 1 0 0 0 0 1 0 0 0 0.3 0"/>
<feBlend mode="normal" in2="effect1_innerShadow_23_3196" result="effect2_innerShadow_23_3196"/>
</filter>
<filter id="filter4_ii_23_3196" x="35.6891" y="66.5" width="62" height="62" filterUnits="userSpaceOnUse" color-interpolation-filters="sRGB">
<feFlood flood-opacity="0" result="BackgroundImageFix"/>
<feBlend mode="normal" in="SourceGraphic" in2="BackgroundImageFix" result="shape"/>
<feColorMatrix in="SourceAlpha" type="matrix" values="0 0 0 0 0 0 0 0 0 0 0 0 0 0 0 0 0 0 127 0" result="hardAlpha"/>
<feOffset dx="-6" dy="-6"/>
<feGaussianBlur stdDeviation="5"/>
<feComposite in2="hardAlpha" operator="arithmetic" k2="-1" k3="1"/>
<feColorMatrix type="matrix" values="0 0 0 0 0 0 0 0 0 0 0 0 0 0 0 0 0 0 0.3 0"/>
<feBlend mode="normal" in2="shape" result="effect1_innerShadow_23_3196"/>
<feColorMatrix in="SourceAlpha" type="matrix" values="0 0 0 0 0 0 0 0 0 0 0 0 0 0 0 0 0 0 127 0" result="hardAlpha"/>
<feOffset dx="6" dy="6"/>
<feGaussianBlur stdDeviation="5"/>
<feComposite in2="hardAlpha" operator="arithmetic" k2="-1" k3="1"/>
<feColorMatrix type="matrix" values="0 0 0 0 1 0 0 0 0 1 0 0 0 0 1 0 0 0 0.3 0"/>
<feBlend mode="normal" in2="effect1_innerShadow_23_3196" result="effect2_innerShadow_23_3196"/>
</filter>
<filter id="filter5_i_23_3196" x="54.814" y="89.375" width="5.6" height="5.6" filterUnits="userSpaceOnUse" color-interpolation-filters="sRGB">
<feFlood flood-opacity="0" result="BackgroundImageFix"/>
<feBlend mode="normal" in="SourceGraphic" in2="BackgroundImageFix" result="shape"/>
<feColorMatrix in="SourceAlpha" type="matrix" values="0 0 0 0 0 0 0 0 0 0 0 0 0 0 0 0 0 0 127 0" result="hardAlpha"/>
<feOffset dx="0.6" dy="0.6"/>
<feGaussianBlur stdDeviation="0.35"/>
<feComposite in2="hardAlpha" operator="arithmetic" k2="-1" k3="1"/>
<feColorMatrix type="matrix" values="0 0 0 0 0 0 0 0 0 0 0 0 0 0 0 0 0 0 0.45 0"/>
<feBlend mode="normal" in2="shape" result="effect1_innerShadow_23_3196"/>
</filter>
<filter id="filter6_i_23_3196" x="74.814" y="90.6249" width="5.6" height="5.6" filterUnits="userSpaceOnUse" color-interpolation-filters="sRGB">
<feFlood flood-opacity="0" result="BackgroundImageFix"/>
<feBlend mode="normal" in="SourceGraphic" in2="BackgroundImageFix" result="shape"/>
<feColorMatrix in="SourceAlpha" type="matrix" values="0 0 0 0 0 0 0 0 0 0 0 0 0 0 0 0 0 0 127 0" result="hardAlpha"/>
<feOffset dx="0.6" dy="0.6"/>
<feGaussianBlur stdDeviation="0.35"/>
<feComposite in2="hardAlpha" operator="arithmetic" k2="-1" k3="1"/>
<feColorMatrix type="matrix" values="0 0 0 0 0 0 0 0 0 0 0 0 0 0 0 0 0 0 0.45 0"/>
<feBlend mode="normal" in2="shape" result="effect1_innerShadow_23_3196"/>
</filter>
<filter id="filter7_ii_23_3196" x="44.439" y="30.25" width="30.75" height="25.5768" filterUnits="userSpaceOnUse" color-interpolation-filters="sRGB">
<feFlood flood-opacity="0" result="BackgroundImageFix"/>
<feBlend mode="normal" in="SourceGraphic" in2="BackgroundImageFix" result="shape"/>
<feColorMatrix in="SourceAlpha" type="matrix" values="0 0 0 0 0 0 0 0 0 0 0 0 0 0 0 0 0 0 127 0" result="hardAlpha"/>
<feOffset dx="-6" dy="-6"/>
<feGaussianBlur stdDeviation="5"/>
<feComposite in2="hardAlpha" operator="arithmetic" k2="-1" k3="1"/>
<feColorMatrix type="matrix" values="0 0 0 0 0 0 0 0 0 0 0 0 0 0 0 0 0 0 0.3 0"/>
<feBlend mode="normal" in2="shape" result="effect1_innerShadow_23_3196"/>
<feColorMatrix in="SourceAlpha" type="matrix" values="0 0 0 0 0 0 0 0 0 0 0 0 0 0 0 0 0 0 127 0" result="hardAlpha"/>
<feOffset dx="6" dy="6"/>
<feGaussianBlur stdDeviation="5"/>
<feComposite in2="hardAlpha" operator="arithmetic" k2="-1" k3="1"/>
<feColorMatrix type="matrix" values="0 0 0 0 1 0 0 0 0 1 0 0 0 0 1 0 0 0 0.3 0"/>
<feBlend mode="normal" in2="effect1_innerShadow_23_3196" result="effect2_innerShadow_23_3196"/>
</filter>
<filter id="filter8_ii_23_3196" x="12.0748" y="47.75" width="26.0732" height="29.7095" filterUnits="userSpaceOnUse" color-interpolation-filters="sRGB">
<feFlood flood-opacity="0" result="BackgroundImageFix"/>
<feBlend mode="normal" in="SourceGraphic" in2="BackgroundImageFix" result="shape"/>
<feColorMatrix in="SourceAlpha" type="matrix" values="0 0 0 0 0 0 0 0 0 0 0 0 0 0 0 0 0 0 127 0" result="hardAlpha"/>
<feOffset dx="-6" dy="-6"/>
<feGaussianBlur stdDeviation="5"/>
<feComposite in2="hardAlpha" operator="arithmetic" k2="-1" k3="1"/>
<feColorMatrix type="matrix" values="0 0 0 0 0 0 0 0 0 0 0 0 0 0 0 0 0 0 0.3 0"/>
<feBlend mode="normal" in2="shape" result="effect1_innerShadow_23_3196"/>
<feColorMatrix in="SourceAlpha" type="matrix" values="0 0 0 0 0 0 0 0 0 0 0 0 0 0 0 0 0 0 127 0" result="hardAlpha"/>
<feOffset dx="6" dy="6"/>
<feGaussianBlur stdDeviation="5"/>
<feComposite in2="hardAlpha" operator="arithmetic" k2="-1" k3="1"/>
<feColorMatrix type="matrix" values="0 0 0 0 1 0 0 0 0 1 0 0 0 0 1 0 0 0 0.3 0"/>
<feBlend mode="normal" in2="effect1_innerShadow_23_3196" result="effect2_innerShadow_23_3196"/>
</filter>
</defs>
</svg>
